<?xml version="1.0" standalone="no"?><!DOCTYPE svg PUBLIC "-//W3C//DTD SVG 1.1//EN" "http://www.w3.org/Graphics/SVG/1.1/DTD/svg11.dtd"><svg t="1535960877963" class="icon" style="" viewBox="0 0 1024 1024" version="1.1" xmlns="http://www.w3.org/2000/svg" p-id="10389" xmlns:xlink="http://www.w3.org/1999/xlink" width="200" height="200"><defs><style type="text/css"></style></defs><path d="M512 0c282.773333 0 512 229.226667 512 512S794.773333 1024 512 1024 0 794.773333 0 512 229.226667 0 512 0z" fill="#EB5E4C" p-id="10390"></path><path d="M767.872 319.829333v96.405334h-31.850667v-96.405334H640.213333v-31.594666h95.808V192h31.850667v96.234667h95.936v31.594666h-95.936zM523.306667 237.525333c36.970667 21.077333 56.576 64.426667 56.576 112.341334 0 43.946667-24.405333 79.338667-58.88 106.154666-33.706667 26.261333-40.064 37.205333-40.064 59.52 0 19.008 40.213333 47.317333 58.730666 61.141334 64.362667 48.149333 76.522667 78.421333 77.418667 138.602666 1.194667 79.978667-81.216 149.76-213.269333 149.76-115.882667 0-212.970667-52.544-212.970667-127.701333 0-113.408 80.426667-150.058667 196.288-150.058667 12.629333 0 24.192-0.32 36.16-0.32-15.850667-15.296-28.650667-28.544-28.650667-51.754666 0-13.845333 4.373333-27.008 10.56-38.762667-6.272 0.405333-12.714667 0.810667-19.306666 0.810667-95.189333 0-150.592-66.645333-150.592-150.186667 0-81.813333 84.352-155.136 185.514666-155.136h199.402667l-44.544 45.589333H523.306667z m-116.693334 402.538667c-73.770667 0-134.72 27.626667-134.72 79.594667 0 52.970667 54.378667 96.170667 129.621334 96.170666 105.834667 0 142.72-40.448 142.72-93.504 0-6.4-0.192-12.842667-2.410667-18.688-25.536-63.573333-107.797333-63.573333-135.210667-63.573333z m89.365334-282.090667c-8.789333-66.432-41.984-116.373333-92.992-117.930666-50.986667-1.493333-95.701333 44.821333-86.848 111.232 8.789333 66.496 57.28 111.04 108.309333 112.618666 50.986667 1.472 80.298667-39.424 71.530667-105.92z" fill="#FFFFFF" p-id="10391"></path></svg>