<?xml version="1.0" standalone="no"?><!DOCTYPE svg PUBLIC "-//W3C//DTD SVG 1.1//EN" "http://www.w3.org/Graphics/SVG/1.1/DTD/svg11.dtd"><svg t="1536115337583" class="icon" style="" viewBox="0 0 1024 1024" version="1.1" xmlns="http://www.w3.org/2000/svg" p-id="8583" xmlns:xlink="http://www.w3.org/1999/xlink" width="200" height="200"><defs><style type="text/css"></style></defs><path d="M512 1024C229.2224 1024 0 794.7776 0 512 0 229.2224 229.2224 0 512 0c282.7776 0 512 229.2224 512 512 0 282.7776-229.2224 512-512 512zM324.3008 410.555733c0 59.374933-0.119467 118.749867 0.068267 178.1248 0.0512 15.837867 0.4096 31.726933 1.6896 47.496534 3.959467 48.810667 33.962667 86.9888 80.64 101.188266 15.377067 4.676267 31.744 8.021333 47.752533 8.413867 54.0672 1.28 108.168533 0.375467 162.235733 1.6384 15.940267 0.375467 32.5632 3.037867 47.479467 8.482133 24.337067 8.891733 41.6768 26.624 49.408 52.053334 4.3008 14.165333 1.536 17.237333-13.226667 17.237333-47.991467 0-96-0.682667-143.9744 0.290133-30.532267 0.6144-55.005867-9.813333-76.3392-31.3856-6.024533-6.0928-16.810667-8.704-25.873066-10.205866-9.181867-1.536-11.451733 4.096-6.3488 12.014933 21.8624 33.8944 52.309333 55.364267 92.996266 56.5248 56.900267 1.621333 113.8688 0.631467 170.8032 0.341333 17.954133-0.085333 29.661867-11.639467 30.6176-29.696a69.0176 69.0176 0 0 0-1.962666-21.674666c-7.8336-28.501333-26.026667-49.032533-50.8928-64.290134-24.9856-15.325867-52.616533-17.954133-80.964267-18.090666-54.101333-0.221867-108.202667 0.443733-162.235733-1.467734-54.306133-1.8944-86.050133-32.802133-92.672-86.528-0.887467-7.2192-1.518933-14.5408-1.536-21.845333-0.085333-131.754667-0.068267-263.543467-0.0512-395.3152 0-15.889067 1.860267-17.800533 17.6128-14.626133 22.186667 4.471467 37.632 18.295467 48.469333 37.597866 10.461867 18.688 12.5952 39.2704 12.612267 60.16 0.068267 113.066667-0.068267 226.133333 0.256 339.2 0.017067 8.277333 1.297067 17.493333 5.205333 24.4736 2.9184 5.239467 10.990933 7.611733 16.776533 11.264 1.8432-5.358933 5.290667-10.683733 5.290667-16.042666 0.3072-120.388267 0.341333-240.759467 0.136533-361.147734-0.034133-25.429333-3.720533-50.414933-16.964266-72.772266-17.578667-29.678933-42.461867-49.066667-78.08-51.1488-27.477333-1.604267-38.912 9.710933-38.912 37.188266-0.034133 67.515733-0.017067 135.031467-0.017067 202.5472z" fill="#346061" p-id="8584"></path></svg>