<?xml version="1.0" standalone="no"?><!DOCTYPE svg PUBLIC "-//W3C//DTD SVG 1.1//EN" "http://www.w3.org/Graphics/SVG/1.1/DTD/svg11.dtd"><svg t="1536115348741" class="icon" style="" viewBox="0 0 1024 1024" version="1.1" xmlns="http://www.w3.org/2000/svg" p-id="9258" xmlns:xlink="http://www.w3.org/1999/xlink" width="200" height="200"><defs><style type="text/css"></style></defs><path d="M262.981818 512m-69.818182 0a69.818182 69.818182 0 1 0 139.636364 0 69.818182 69.818182 0 1 0-139.636364 0Z" p-id="9259"></path><path d="M512 512m-69.818182 0a69.818182 69.818182 0 1 0 139.636364 0 69.818182 69.818182 0 1 0-139.636364 0Z" p-id="9260"></path><path d="M761.018182 512m-69.818182 0a69.818182 69.818182 0 1 0 139.636364 0 69.818182 69.818182 0 1 0-139.636364 0Z" p-id="9261"></path><path d="M512 69.818182c244.363636 0 442.181818 197.818182 442.181818 442.181818s-197.818182 442.181818-442.181818 442.181818S69.818182 756.363636 69.818182 512 267.636364 69.818182 512 69.818182m0-69.818182C228.072727 0 0 228.072727 0 512s228.072727 512 512 512 512-228.072727 512-512S795.927273 0 512 0z" p-id="9262"></path></svg>