<?xml version="1.0" standalone="no"?><!DOCTYPE svg PUBLIC "-//W3C//DTD SVG 1.1//EN" "http://www.w3.org/Graphics/SVG/1.1/DTD/svg11.dtd"><svg t="1536115744963" class="icon" style="" viewBox="0 0 1024 1024" version="1.1" xmlns="http://www.w3.org/2000/svg" p-id="7548" xmlns:xlink="http://www.w3.org/1999/xlink" width="200" height="200"><defs><style type="text/css"></style></defs><path d="M512 0C229.376 0 0 229.376 0 512s229.376 512 512 512S1024 794.624 1024 512 794.624 0 512 0z" fill="#09B70E" p-id="7549"></path><path d="M512.512 198.144c-11.776 0-23.552 0.512-35.328 2.048-28.16 3.072-55.808 10.24-80.896 20.48 0 0 210.944 208.384 216.576 216.576V215.04c-6.144-2.048-12.8-4.096-18.944-5.632-26.624-7.168-53.76-11.264-81.408-11.264z m220.16 90.624c-8.704-8.704-17.408-16.384-26.624-23.552-22.528-17.92-46.592-31.744-71.68-42.496 0 0 1.536 296.448 0 306.176l157.184-157.184c-3.072-6.144-6.144-11.776-9.728-17.408-12.8-23.552-29.184-45.568-49.152-65.536z m69.12 107.52s-208.384 210.944-216.576 216.576h222.72c2.048-6.144 4.096-12.8 5.632-18.944 7.168-25.6 10.752-52.736 10.752-80.896 0-11.776-0.512-23.552-2.048-35.328-3.072-29.184-10.24-56.32-20.48-81.408z m-309.248 239.616l157.184 157.184c6.144-3.072 11.776-6.144 17.408-9.728 23.04-13.312 45.056-29.696 64.512-49.664 8.192-8.192 16.384-17.408 23.552-26.624 17.92-22.528 31.744-46.592 42.496-71.68 0.512 0.512-295.936 2.048-305.152 0.512z m-80.896-49.152V808.96c6.144 2.048 12.8 4.096 18.944 5.632 25.6 7.168 52.736 10.752 80.896 10.752 11.776 0 23.552-0.512 35.328-2.048 28.16-3.072 55.808-10.24 80.896-20.48 0.512 0-210.432-208.384-216.064-216.064zM389.12 493.568l-157.184 157.184c3.072 6.144 6.144 11.776 9.728 17.408 13.312 23.04 29.696 45.056 49.664 64.512 8.192 8.704 17.408 16.384 26.624 23.552 22.528 17.92 46.592 31.744 72.192 42.496-0.512 1.024-2.048-295.424-1.024-305.152zM210.432 430.592c-6.656 25.6-10.752 52.736-10.752 80.896 0 11.776 0.512 23.552 2.048 35.328 3.072 28.16 10.24 55.808 20.48 80.896 0 0 208.384-210.944 216.576-216.576h-222.72c-2.048 6.656-4.096 13.312-5.632 19.456z m144.896-189.44c-23.04 13.312-45.056 29.696-64.512 49.664-8.704 8.704-16.384 17.408-23.552 26.624-17.92 22.528-31.744 46.592-43.008 72.192 0 0 296.448-1.536 306.176 0l-157.184-157.696c-6.656 3.072-12.288 6.144-17.92 9.216z" fill="#FFFFFF" p-id="7550"></path></svg>